<?xml version="1.0" standalone="no"?><!DOCTYPE svg PUBLIC "-//W3C//DTD SVG 1.1//EN" "http://www.w3.org/Graphics/SVG/1.1/DTD/svg11.dtd"><svg class="icon" width="200px" height="200.00px" viewBox="0 0 1024 1024" version="1.1" xmlns="http://www.w3.org/2000/svg"><path fill="#333333" d="M662.195767 87.750553c0 0-60.385299-23.936155-151.652955-23.936155-91.255377 0-151.646815 27.429723-151.646815 27.429723l303.298747 302.240649L662.194744 87.750553zM826.417993 194.653305c-64.532759-63.666018-126.895085-86.396719-126.895085-86.396719l-2.15406 425.301406L916.494521 317.370231C916.494521 317.370231 890.951775 258.320347 826.417993 194.653305zM929.45367 360.90884 623.104447 660.139945l309.890886 0c0 0 24.260543-59.578933 24.260543-149.614529S929.45367 360.90884 929.45367 360.90884zM702.030008 915.260413c0 0 59.85318-25.198915 124.386962-88.864934s87.573521-125.190257 87.573521-125.190257l-431.090249-2.124384L702.030008 915.260413zM358.89702 933.299255c0 0 60.390415 23.936155 151.646815 23.936155 91.267657 0 151.652955-27.429723 151.652955-27.429723L358.89702 627.565039 358.89702 933.299255zM194.674794 826.39548c64.532759 63.666018 126.889969 86.396719 126.889969 86.396719l2.160199-425.301406L104.59929 703.679577C104.59929 703.679577 130.141012 762.728438 194.674794 826.39548zM88.098477 360.90884c0 0-24.261567 59.579957-24.261567 149.615553s27.802206 149.614529 27.802206 149.614529l306.350247-299.230082L88.098477 360.90884zM319.060733 105.788371c0 0-59.85318 25.198915-124.386962 88.864934-64.532759 63.666018-87.573521 125.190257-87.573521 125.190257l431.090249 2.124384L319.060733 105.788371z" /></svg>