<?xml version="1.0" standalone="no"?><!DOCTYPE svg PUBLIC "-//W3C//DTD SVG 1.1//EN" "http://www.w3.org/Graphics/SVG/1.1/DTD/svg11.dtd"><svg class="icon" width="200px" height="200.00px" viewBox="0 0 1024 1024" version="1.1" xmlns="http://www.w3.org/2000/svg"><path fill="#333333" d="M942.888817 404.536916c-9.590498-27.201757-33.74692-46.780283-63.048453-51.093359l-206.68087-30.285267-89.758344-183.564943c-12.976602-26.57758-41.010795-43.753735-71.428571-43.753735-30.341828 0-58.338247 17.176155-71.352823 43.753735l-89.796318 183.58393-206.661883 30.323041c-29.320521 4.21834-53.49573 23.777879-63.086228 51.131133-9.57171 27.618075-2.440146 57.619534 18.594793 78.295116l151.690754 149.250608-35.184545 206.813381c-4.937253 28.828654 7.888052 58.395008 32.763187 75.362904 24.326507 16.362706 56.938396 18.159688 83.137633 4.388625l179.933005-95.509045 180.046528 95.527832c11.6525 6.147832 24.723837 9.401626 37.832749 9.401626 16.154647 0 31.798641-4.766968 45.323671-13.865599 24.761612-16.892547 37.567929-46.439914 32.630876-75.268568l-35.165758-206.832168 151.709741-149.250608C945.385924 462.231999 952.517489 432.23054 942.888817 404.536916zM897.81118 455.951657l-165.783599 163.116407 38.475913 226.316158c2.496907 14.52775-3.896758 28.942177-16.551978 37.586916-12.957815 8.7017-30.436564 9.628472-44.226614 2.364597l-197.733337-104.929458-197.601027 104.891484c-13.941348 7.339624-31.439084 6.355891-44.226614-2.269861-12.78753-8.720488-19.181195-23.153702-16.684288-37.681452l38.4949-226.278183-165.764612-163.116407c-10.517469-10.328397-14.111632-25.253478-9.401426-38.854257 4.899278-13.922561 17.440975-23.948163 32.819948-26.161463l226.448468-33.236066 98.55458-201.497785c6.69646-13.695514 21.375507-22.548312 37.378857-22.548312 16.060111 0 30.739159 8.834011 37.435619 22.529525l98.535593 201.497785 226.391906 33.160517c15.360186 2.270061 27.958444 12.333438 32.838935 26.18025C911.922812 430.698179 908.328649 445.604472 897.81118 455.951657zM509.475871 359.345556c-38.740734 0-69.952972 11.822784-92.72833 35.108796-38.022021 38.873244-37.208573 95.33876-37.151811 97.741132 0.227046 10.290623 8.644739 18.462482 18.897587 18.462482 0.113523 0 0.245833 0 0.359356 0 10.422933-0.189072 18.708316-8.815023 18.557018-19.237957 0-0.435105-0.340569-43.394179 26.558593-70.690672 15.378973-15.625006 37.435619-23.532045 65.488599-23.532045 10.44192 0 18.916375-8.474454 18.916375-18.916375C528.373459 367.838997 519.917792 359.345556 509.475871 359.345556z" /></svg>