<?xml version="1.0" standalone="no"?><!DOCTYPE svg PUBLIC "-//W3C//DTD SVG 1.1//EN" "http://www.w3.org/Graphics/SVG/1.1/DTD/svg11.dtd"><svg class="icon" width="200px" height="200.00px" viewBox="0 0 1024 1024" version="1.1" xmlns="http://www.w3.org/2000/svg"><path fill="#333333" d="M864 960H176a64.07 64.07 0 0 1-64-64V784a32 32 0 0 1 64 0v112h688V128H176v144a32 32 0 0 1-64 0V128a64.07 64.07 0 0 1 64-64h688a64.07 64.07 0 0 1 64 64v768a64.07 64.07 0 0 1-64 64zM176 688h-64a32 32 0 0 1 0-64h64a32 32 0 0 1 0 64zM176 560h-64a32 32 0 0 1 0-64h64a32 32 0 0 1 0 64zM176 432h-64a32 32 0 0 1 0-64h64a32 32 0 0 1 0 64zM512 576c-88.22 0-160-71.78-160-160s71.78-160 160-160 160 71.78 160 160-71.78 160-160 160z m0-256a96 96 0 1 0 96 96 96.11 96.11 0 0 0-96-96zM704 768a32 32 0 0 1-32-32c0-88.22-71.78-160-160-160s-160 71.78-160 160a32 32 0 0 1-64 0 224 224 0 1 1 448 0 32 32 0 0 1-32 32zM864 960H176a64.07 64.07 0 0 1-64-64V784a32 32 0 0 1 64 0v112h688V128H176v144a32 32 0 0 1-64 0V128a64.07 64.07 0 0 1 64-64h688a64.07 64.07 0 0 1 64 64v768a64.07 64.07 0 0 1-64 64zM176 688h-64a32 32 0 0 1 0-64h64a32 32 0 0 1 0 64zM176 560h-64a32 32 0 0 1 0-64h64a32 32 0 0 1 0 64zM176 432h-64a32 32 0 0 1 0-64h64a32 32 0 0 1 0 64zM512 576c-88.22 0-160-71.78-160-160s71.78-160 160-160 160 71.78 160 160-71.78 160-160 160z m0-256a96 96 0 1 0 96 96 96.11 96.11 0 0 0-96-96zM704 768a32 32 0 0 1-32-32c0-88.22-71.78-160-160-160s-160 71.78-160 160a32 32 0 0 1-64 0 224 224 0 1 1 448 0 32 32 0 0 1-32 32z" /></svg>