<?xml version="1.0" standalone="no"?><!DOCTYPE svg PUBLIC "-//W3C//DTD SVG 1.1//EN" "http://www.w3.org/Graphics/SVG/1.1/DTD/svg11.dtd"><svg class="icon" width="200px" height="200.00px" viewBox="0 0 1024 1024" version="1.1" xmlns="http://www.w3.org/2000/svg"><path fill="#333333" d="M896 234.666667h-170.666667l-14.933333-46.933334c-10.666667-36.266667-42.666667-59.733333-81.066667-59.733333h-234.666666c-38.4 0-70.4 23.466667-81.066667 59.733333L298.666667 234.666667H128c-46.933333 0-85.333333 38.4-85.333333 85.333333v490.666667c0 46.933333 38.4 85.333333 85.333333 85.333333h768c46.933333 0 85.333333-38.4 85.333333-85.333333V320c0-46.933333-38.4-85.333333-85.333333-85.333333z m42.666667 576c0 23.466667-19.2 42.666667-42.666667 42.666666H128c-23.466667 0-42.666667-19.2-42.666667-42.666666V320c0-23.466667 19.2-42.666667 42.666667-42.666667h202.666667l8.533333-29.866666 14.933333-46.933334c6.4-17.066667 21.333333-29.866667 40.533334-29.866666h234.666666c19.2 0 36.266667 12.8 40.533334 29.866666l14.933333 46.933334 8.533333 29.866666H896c23.466667 0 42.666667 19.2 42.666667 42.666667v490.666667z"  /><path fill="#333333" d="M512 362.666667c-106.666667 0-192 85.333333-192 192s85.333333 192 192 192 192-85.333333 192-192-85.333333-192-192-192z m0 341.333333c-83.2 0-149.333333-66.133333-149.333333-149.333333s66.133333-149.333333 149.333333-149.333334 149.333333 66.133333 149.333333 149.333334-66.133333 149.333333-149.333333 149.333333z"  /></svg>